<mxfile host="app.diagrams.net" modified="2024-01-31T16:29:35.103Z" agent="Mozilla/5.0 (Windows NT 10.0; Win64; x64) AppleWebKit/537.36 (KHTML, like Gecko) Chrome/121.0.0.0 Safari/537.36 Edg/121.0.0.0" etag="wBfiNDYxav7eutZ0w2N_" version="23.0.2" type="device">
  <diagram id="ifBEYoDfdchcPFEIM__y" name="Seite-1">
    <mxGraphModel dx="4212" dy="3076" grid="1" gridSize="10" guides="1" tooltips="1" connect="1" arrows="1" fold="1" page="0" pageScale="1" pageWidth="827" pageHeight="1169" background="none" math="0" shadow="0">
      <root>
        <mxCell id="0" />
        <mxCell id="1" parent="0" />
        <mxCell id="node25" value="&lt;p style=&quot;margin:0px;margin-top:4px;text-align:center;&quot;&gt;&lt;b&gt;&lt;i&gt;AObject&lt;/i&gt;&lt;/b&gt;&lt;/p&gt;&lt;hr size=&quot;1&quot;&gt;&lt;p style=&quot;margin:0 0 0 4px;line-height:1.6;&quot;&gt;- blocked: boolean&lt;br&gt;- position: Position&lt;br&gt;- appearance: String&lt;/p&gt;&lt;hr size=&quot;1&quot;&gt;&lt;p style=&quot;margin:0 0 0 4px;line-height:1.6;&quot;&gt;+ setPosition(Position): void&lt;br&gt;+ setBlocked(boolean): void&lt;br&gt;+ getAppearance(): String&lt;br&gt;+ getPosition(): Position&lt;br&gt;+ isBlocked(): boolean&lt;br&gt;+ setAppearance(String): void&lt;/p&gt;" style="verticalAlign=top;align=left;overflow=fill;fontSize=14;fontFamily=Helvetica;html=1;rounded=0;shadow=0;comic=0;labelBackgroundColor=none;strokeWidth=1;" parent="1" vertex="1">
          <mxGeometry x="1222.5699999999997" y="-232" width="192" height="231" as="geometry" />
        </mxCell>
        <mxCell id="node5" value="&lt;p style=&quot;margin:0px;margin-top:4px;text-align:center;&quot;&gt;&lt;b&gt;&lt;i&gt;AShape&lt;/i&gt;&lt;/b&gt;&lt;/p&gt;&lt;hr size=&quot;1&quot;&gt;&lt;p style=&quot;margin:0 0 0 4px;line-height:1.6;&quot;&gt;- walls: List&amp;lt;Wall&amp;gt;&lt;br&gt;- startingPosition: Position&lt;/p&gt;&lt;hr size=&quot;1&quot;&gt;&lt;p style=&quot;margin:0 0 0 4px;line-height:1.6;&quot;&gt;+ getWalls(): List&amp;lt;Wall&amp;gt;&lt;/p&gt;" style="verticalAlign=top;align=left;overflow=fill;fontSize=14;fontFamily=Helvetica;html=1;rounded=0;shadow=0;comic=0;labelBackgroundColor=none;strokeWidth=1;" parent="1" vertex="1">
          <mxGeometry x="1232" y="-920" width="178" height="125" as="geometry" />
        </mxCell>
        <mxCell id="node29" value="&lt;p style=&quot;margin:0px;margin-top:4px;text-align:center;&quot;&gt;&lt;b&gt;Apple&lt;/b&gt;&lt;/p&gt;&lt;hr size=&quot;1&quot;/&gt;" style="verticalAlign=top;align=left;overflow=fill;fontSize=14;fontFamily=Helvetica;html=1;rounded=0;shadow=0;comic=0;labelBackgroundColor=none;strokeWidth=1;" parent="1" vertex="1">
          <mxGeometry x="1482.5699999999997" y="163" width="90" height="31" as="geometry" />
        </mxCell>
        <mxCell id="node6" value="&lt;p style=&quot;margin:0px;margin-top:4px;text-align:center;&quot;&gt;&lt;b&gt;Banana&lt;/b&gt;&lt;/p&gt;&lt;hr size=&quot;1&quot;/&gt;" style="verticalAlign=top;align=left;overflow=fill;fontSize=14;fontFamily=Helvetica;html=1;rounded=0;shadow=0;comic=0;labelBackgroundColor=none;strokeWidth=1;" parent="1" vertex="1">
          <mxGeometry x="1000" y="163" width="99" height="31" as="geometry" />
        </mxCell>
        <mxCell id="node33" value="&lt;p style=&quot;margin:0px;margin-top:4px;text-align:center;&quot;&gt;&lt;b&gt;Cherry&lt;/b&gt;&lt;/p&gt;&lt;hr size=&quot;1&quot;/&gt;" style="verticalAlign=top;align=left;overflow=fill;fontSize=14;fontFamily=Helvetica;html=1;rounded=0;shadow=0;comic=0;labelBackgroundColor=none;strokeWidth=1;" parent="1" vertex="1">
          <mxGeometry x="1272.5699999999997" y="163" width="92" height="29" as="geometry" />
        </mxCell>
        <mxCell id="node23" value="&lt;p style=&quot;margin:0px;margin-top:4px;text-align:center;&quot;&gt;&lt;b&gt;CrossWall&lt;/b&gt;&lt;/p&gt;&lt;hr size=&quot;1&quot;/&gt;" style="verticalAlign=top;align=left;overflow=fill;fontSize=14;fontFamily=Helvetica;html=1;rounded=0;shadow=0;comic=0;labelBackgroundColor=none;strokeWidth=1;" parent="1" vertex="1">
          <mxGeometry x="1263.5" y="-1110" width="115" height="31" as="geometry" />
        </mxCell>
        <mxCell id="node32" value="&lt;p style=&quot;margin:0px;margin-top:4px;text-align:center;&quot;&gt;&lt;i&gt;&amp;lt;&amp;lt;enumeration&amp;gt;&amp;gt;&lt;/i&gt;&lt;br/&gt;&lt;b&gt;Directions&lt;/b&gt;&lt;/p&gt;&lt;hr size=&quot;1&quot;/&gt;&lt;p style=&quot;margin:0 0 0 4px;line-height:1.6;&quot;&gt;+ RIGHT: &lt;br/&gt;+ UP: &lt;br/&gt;+ DOWN: &lt;br/&gt;+ LEFT: &lt;/p&gt;&lt;hr size=&quot;1&quot;/&gt;&lt;p style=&quot;margin:0 0 0 4px;line-height:1.6;&quot;&gt;+ values(): Directions[]&lt;br/&gt;+ valueOf(String): Directions&lt;/p&gt;" style="verticalAlign=top;align=left;overflow=fill;fontSize=14;fontFamily=Helvetica;html=1;rounded=0;shadow=0;comic=0;labelBackgroundColor=none;strokeWidth=1;" parent="1" vertex="1">
          <mxGeometry x="-1550" y="-149" width="186" height="213" as="geometry" />
        </mxCell>
        <mxCell id="node20" value="&lt;p style=&quot;margin:0px;margin-top:4px;text-align:center;&quot;&gt;&lt;b&gt;FoodFactory&lt;/b&gt;&lt;/p&gt;&lt;hr size=&quot;1&quot;/&gt;&lt;p style=&quot;margin:0 0 0 4px;line-height:1.6;&quot;&gt;- foodFactoryLogger: Logger&lt;/p&gt;&lt;hr size=&quot;1&quot;/&gt;&lt;p style=&quot;margin:0 0 0 4px;line-height:1.6;&quot;&gt;+ createFood(FoodNames, Position): IObject&lt;/p&gt;" style="verticalAlign=top;align=left;overflow=fill;fontSize=14;fontFamily=Helvetica;html=1;rounded=0;shadow=0;comic=0;labelBackgroundColor=none;strokeWidth=1;" parent="1" vertex="1">
          <mxGeometry x="610" y="-470" width="288" height="99" as="geometry" />
        </mxCell>
        <mxCell id="node12" value="&lt;p style=&quot;margin:0px;margin-top:4px;text-align:center;&quot;&gt;&lt;i&gt;&amp;lt;&amp;lt;enumeration&amp;gt;&amp;gt;&lt;/i&gt;&lt;br/&gt;&lt;b&gt;FoodNames&lt;/b&gt;&lt;/p&gt;&lt;hr size=&quot;1&quot;/&gt;&lt;p style=&quot;margin:0 0 0 4px;line-height:1.6;&quot;&gt;+ APPLE: &lt;br/&gt;+ BANANA: &lt;br/&gt;+ KIWI: &lt;br/&gt;+ CHERRY: &lt;br/&gt;+ MELON: &lt;/p&gt;&lt;hr size=&quot;1&quot;/&gt;&lt;p style=&quot;margin:0 0 0 4px;line-height:1.6;&quot;&gt;+ values(): FoodNames[]&lt;br/&gt;+ valueOf(String): FoodNames&lt;/p&gt;" style="verticalAlign=top;align=left;overflow=fill;fontSize=14;fontFamily=Helvetica;html=1;rounded=0;shadow=0;comic=0;labelBackgroundColor=none;strokeWidth=1;" parent="1" vertex="1">
          <mxGeometry x="-310" y="-870" width="199" height="233" as="geometry" />
        </mxCell>
        <mxCell id="node18" value="&lt;p style=&quot;margin:0px;margin-top:4px;text-align:center;&quot;&gt;&lt;b&gt;GameField&lt;/b&gt;&lt;/p&gt;&lt;hr size=&quot;1&quot;/&gt;&lt;p style=&quot;margin:0 0 0 4px;line-height:1.6;&quot;&gt;- canvas: Canvas&lt;br/&gt;- instance: GameField&lt;br/&gt;- row: int&lt;br/&gt;- gameFieldLogger: Logger&lt;/p&gt;&lt;hr size=&quot;1&quot;/&gt;&lt;p style=&quot;margin:0 0 0 4px;line-height:1.6;&quot;&gt;+ getCanvas(): Canvas&lt;br/&gt;+ createGameField(GraphicsContext): void&lt;br/&gt;+ getInstance(Canvas): GameField&lt;br/&gt;+ getRow(): int&lt;/p&gt;" style="verticalAlign=top;align=left;overflow=fill;fontSize=14;fontFamily=Helvetica;html=1;rounded=0;shadow=0;comic=0;labelBackgroundColor=none;strokeWidth=1;" parent="1" vertex="1">
          <mxGeometry x="154" y="8" width="273" height="233" as="geometry" />
        </mxCell>
        <mxCell id="node27" value="&lt;p style=&quot;margin:0px;margin-top:4px;text-align:center;&quot;&gt;&lt;b&gt;GameManager&lt;/b&gt;&lt;/p&gt;&lt;hr size=&quot;1&quot;/&gt;&lt;p style=&quot;margin:0 0 0 4px;line-height:1.6;&quot;&gt;- gameWon: boolean&lt;br/&gt;- instance: GameManager&lt;br/&gt;+ gameTick: Timer&lt;br/&gt;- switchScene: boolean&lt;br/&gt;- gameSpeed: int&lt;br/&gt;~ moveSnake: TimerTask&lt;br/&gt;- gameManagerLogger: Logger&lt;br/&gt;- winningCondition: int&lt;/p&gt;&lt;hr size=&quot;1&quot;/&gt;&lt;p style=&quot;margin:0 0 0 4px;line-height:1.6;&quot;&gt;+ isGameWon(): boolean&lt;br/&gt;- spawnTreasure(): void&lt;br/&gt;- checkWinningCondition(): void&lt;br/&gt;+ keyHandler(Scene): void&lt;br/&gt;- spawnFood(): void&lt;br/&gt;- createWinningCondition(): void&lt;br/&gt;+ getInstance(): GameManager&lt;br/&gt;+ checkCollision(): void&lt;br/&gt;- gameOver(): void&lt;br/&gt;+ getGameTick(): Timer&lt;br/&gt;+ gameReset(): void&lt;br/&gt;- updateGameState(): void&lt;/p&gt;" style="verticalAlign=top;align=left;overflow=fill;fontSize=14;fontFamily=Helvetica;html=1;rounded=0;shadow=0;comic=0;labelBackgroundColor=none;strokeWidth=1;" parent="1" vertex="1">
          <mxGeometry x="-692" y="-50" width="213" height="505" as="geometry" />
        </mxCell>
        <mxCell id="R7NYiEnnaSbIDZajH532-14" style="edgeStyle=orthogonalEdgeStyle;rounded=0;orthogonalLoop=1;jettySize=auto;html=1;exitX=0.5;exitY=1;exitDx=0;exitDy=0;" parent="1" source="node15" target="node37" edge="1">
          <mxGeometry relative="1" as="geometry" />
        </mxCell>
        <mxCell id="node15" value="&lt;p style=&quot;margin:0px;margin-top:4px;text-align:center;&quot;&gt;&lt;b&gt;GameOverScene&lt;/b&gt;&lt;/p&gt;&lt;hr size=&quot;1&quot;/&gt;&lt;p style=&quot;margin:0 0 0 4px;line-height:1.6;&quot;&gt;- instance: GameOverScene&lt;/p&gt;&lt;hr size=&quot;1&quot;/&gt;&lt;p style=&quot;margin:0 0 0 4px;line-height:1.6;&quot;&gt;+ getInstance(): GameOverScene&lt;br/&gt;+ createGameOverScene(Stage): void&lt;/p&gt;" style="verticalAlign=top;align=left;overflow=fill;fontSize=14;fontFamily=Helvetica;html=1;rounded=0;shadow=0;comic=0;labelBackgroundColor=none;strokeWidth=1;" parent="1" vertex="1">
          <mxGeometry x="-1350" y="442" width="250" height="119" as="geometry" />
        </mxCell>
        <mxCell id="node1" value="&lt;p style=&quot;margin:0px;margin-top:4px;text-align:center;&quot;&gt;&lt;b&gt;GameWindow&lt;/b&gt;&lt;/p&gt;&lt;hr size=&quot;1&quot;/&gt;&lt;p style=&quot;margin:0 0 0 4px;line-height:1.6;&quot;&gt;- graphicContext: GraphicsContext&lt;br/&gt;- instance: GameWindow&lt;br/&gt;- root: Group&lt;br/&gt;- gameScene: Scene&lt;br/&gt;- gameWindowLogger: Logger&lt;br/&gt;- canvas: Canvas&lt;/p&gt;&lt;hr size=&quot;1&quot;/&gt;&lt;p style=&quot;margin:0 0 0 4px;line-height:1.6;&quot;&gt;+ createGameOverScene(Stage): void&lt;br/&gt;+ getInstance(): GameWindow&lt;br/&gt;+ updateBackground(): void&lt;br/&gt;+ start(Stage): void&lt;br/&gt;+ getGraphicContext(): GraphicsContext&lt;br/&gt;+ createGame(Stage): void&lt;br/&gt;+ getGameScene(): Scene&lt;/p&gt;" style="verticalAlign=top;align=left;overflow=fill;fontSize=14;fontFamily=Helvetica;html=1;rounded=0;shadow=0;comic=0;labelBackgroundColor=none;strokeWidth=1;" parent="1" vertex="1">
          <mxGeometry x="-717.5" y="630" width="264" height="349" as="geometry" />
        </mxCell>
        <mxCell id="node13" value="&lt;p style=&quot;margin:0px;margin-top:4px;text-align:center;&quot;&gt;&lt;i&gt;&amp;lt;&amp;lt;interface&amp;gt;&amp;gt;&lt;/i&gt;&lt;br/&gt;&lt;b&gt;IObject&lt;/b&gt;&lt;/p&gt;&lt;hr size=&quot;1&quot;/&gt;&lt;p style=&quot;margin:0 0 0 4px;line-height:1.6;&quot;&gt;+ getPosition(): Position&lt;br/&gt;+ isBlocked(): boolean&lt;br/&gt;+ setPosition(Position): void&lt;br/&gt;+ setBlocked(boolean): void&lt;br/&gt;+ getAppearance(): String&lt;/p&gt;" style="verticalAlign=top;align=left;overflow=fill;fontSize=14;fontFamily=Helvetica;html=1;rounded=0;shadow=0;comic=0;labelBackgroundColor=none;strokeWidth=1;" parent="1" vertex="1">
          <mxGeometry x="1226.5699999999997" y="-491.5" width="184" height="142" as="geometry" />
        </mxCell>
        <mxCell id="node4" value="&lt;p style=&quot;margin:0px;margin-top:4px;text-align:center;&quot;&gt;&lt;i&gt;&amp;lt;&amp;lt;interface&amp;gt;&amp;gt;&lt;/i&gt;&lt;br/&gt;&lt;b&gt;IShape&lt;/b&gt;&lt;/p&gt;&lt;hr size=&quot;1&quot;/&gt;&lt;p style=&quot;margin:0 0 0 4px;line-height:1.6;&quot;&gt;+ getWalls(): List&amp;lt;Wall&amp;gt;&lt;/p&gt;" style="verticalAlign=top;align=left;overflow=fill;fontSize=14;fontFamily=Helvetica;html=1;rounded=0;shadow=0;comic=0;labelBackgroundColor=none;strokeWidth=1;" parent="1" vertex="1">
          <mxGeometry x="1239.9999999999998" y="-680.5" width="162" height="80" as="geometry" />
        </mxCell>
        <mxCell id="node14" value="&lt;p style=&quot;margin:0px;margin-top:4px;text-align:center;&quot;&gt;&lt;b&gt;ImageFactory&lt;/b&gt;&lt;/p&gt;&lt;hr size=&quot;1&quot;/&gt;&lt;p style=&quot;margin:0 0 0 4px;line-height:1.6;&quot;&gt;- foodImages: Image[]&lt;br/&gt;+ obstacleImages: Image[]&lt;/p&gt;&lt;hr size=&quot;1&quot;/&gt;&lt;p style=&quot;margin:0 0 0 4px;line-height:1.6;&quot;&gt;+ createFoodImage(FoodNames): Image&lt;/p&gt;" style="verticalAlign=top;align=left;overflow=fill;fontSize=14;fontFamily=Helvetica;html=1;rounded=0;shadow=0;comic=0;labelBackgroundColor=none;strokeWidth=1;" parent="1" vertex="1">
          <mxGeometry y="-360" width="281" height="133" as="geometry" />
        </mxCell>
        <mxCell id="node35" value="&lt;p style=&quot;margin:0px;margin-top:4px;text-align:center;&quot;&gt;&lt;b&gt;InvalidFoodTypeException&lt;/b&gt;&lt;/p&gt;&lt;hr size=&quot;1&quot;/&gt;" style="verticalAlign=top;align=left;overflow=fill;fontSize=14;fontFamily=Helvetica;html=1;rounded=0;shadow=0;comic=0;labelBackgroundColor=none;strokeWidth=1;" parent="1" vertex="1">
          <mxGeometry x="641.5" y="-260" width="225" height="31" as="geometry" />
        </mxCell>
        <mxCell id="node31" value="&lt;p style=&quot;margin:0px;margin-top:4px;text-align:center;&quot;&gt;&lt;b&gt;Kiwi&lt;/b&gt;&lt;/p&gt;&lt;hr size=&quot;1&quot;/&gt;" style="verticalAlign=top;align=left;overflow=fill;fontSize=14;fontFamily=Helvetica;html=1;rounded=0;shadow=0;comic=0;labelBackgroundColor=none;strokeWidth=1;" parent="1" vertex="1">
          <mxGeometry x="1384.5699999999997" y="163" width="78" height="31" as="geometry" />
        </mxCell>
        <mxCell id="node36" value="&lt;p style=&quot;margin:0px;margin-top:4px;text-align:center;&quot;&gt;&lt;b&gt;LWall&lt;/b&gt;&lt;/p&gt;&lt;hr size=&quot;1&quot;/&gt;" style="verticalAlign=top;align=left;overflow=fill;fontSize=14;fontFamily=Helvetica;html=1;rounded=0;shadow=0;comic=0;labelBackgroundColor=none;strokeWidth=1;" parent="1" vertex="1">
          <mxGeometry x="1519.5" y="-1110" width="87" height="31" as="geometry" />
        </mxCell>
        <mxCell id="node7" value="&lt;p style=&quot;margin:0px;margin-top:4px;text-align:center;&quot;&gt;&lt;b&gt;LineWall&lt;/b&gt;&lt;/p&gt;&lt;hr size=&quot;1&quot;/&gt;" style="verticalAlign=top;align=left;overflow=fill;fontSize=14;fontFamily=Helvetica;html=1;rounded=0;shadow=0;comic=0;labelBackgroundColor=none;strokeWidth=1;" parent="1" vertex="1">
          <mxGeometry x="1035.4999999999998" y="-1110" width="107" height="31" as="geometry" />
        </mxCell>
        <mxCell id="node22" value="&lt;p style=&quot;margin:0px;margin-top:4px;text-align:center;&quot;&gt;&lt;b&gt;Main&lt;/b&gt;&lt;/p&gt;&lt;hr size=&quot;1&quot;/&gt;&lt;p style=&quot;margin:0 0 0 4px;line-height:1.6;&quot;&gt;+ main(String[]): void&lt;/p&gt;" style="verticalAlign=top;align=left;overflow=fill;fontSize=14;fontFamily=Helvetica;html=1;rounded=0;shadow=0;comic=0;labelBackgroundColor=none;strokeWidth=1;" parent="1" vertex="1">
          <mxGeometry x="-660" y="1120" width="149" height="60" as="geometry" />
        </mxCell>
        <mxCell id="node17" value="&lt;p style=&quot;margin:0px;margin-top:4px;text-align:center;&quot;&gt;&lt;b&gt;Melon&lt;/b&gt;&lt;/p&gt;&lt;hr size=&quot;1&quot;/&gt;" style="verticalAlign=top;align=left;overflow=fill;fontSize=14;fontFamily=Helvetica;html=1;rounded=0;shadow=0;comic=0;labelBackgroundColor=none;strokeWidth=1;" parent="1" vertex="1">
          <mxGeometry x="1592.5699999999997" y="163" width="92" height="31" as="geometry" />
        </mxCell>
        <mxCell id="node34" value="&lt;p style=&quot;margin:0px;margin-top:4px;text-align:center;&quot;&gt;&lt;b&gt;MetaDataHelper&lt;/b&gt;&lt;/p&gt;&lt;hr size=&quot;1&quot;/&gt;&lt;p style=&quot;margin:0 0 0 4px;line-height:1.6;&quot;&gt;+ WIDTH: int&lt;br/&gt;+ HEIGHT: int&lt;br/&gt;+ SIZEBLOCK: int&lt;/p&gt;" style="verticalAlign=top;align=left;overflow=fill;fontSize=14;fontFamily=Helvetica;html=1;rounded=0;shadow=0;comic=0;labelBackgroundColor=none;strokeWidth=1;" parent="1" vertex="1">
          <mxGeometry x="290" y="-920" width="163" height="109" as="geometry" />
        </mxCell>
        <mxCell id="node3" value="&lt;p style=&quot;margin:0px;margin-top:4px;text-align:center;&quot;&gt;&lt;b&gt;ObjectManager&lt;/b&gt;&lt;/p&gt;&lt;hr size=&quot;1&quot;/&gt;&lt;p style=&quot;margin:0 0 0 4px;line-height:1.6;&quot;&gt;- wallStructures: IShape[]&lt;br/&gt;- instance: ObjectManager&lt;br/&gt;- currentFoodEnum: FoodNames&lt;br/&gt;- foodExisting: Boolean&lt;br/&gt;- currentFood: IObject&lt;br/&gt;- treasure: IObject&lt;br/&gt;- treasureExisting: Boolean&lt;br/&gt;- rnd: Random&lt;br/&gt;- spawnPositions: Position[]&lt;br/&gt;- foodNames: FoodNames[]&lt;br/&gt;- objectManagerLogger: Logger&lt;br/&gt;- obstacleNames: ObstacleNames[]&lt;/p&gt;&lt;hr size=&quot;1&quot;/&gt;&lt;p style=&quot;margin:0 0 0 4px;line-height:1.6;&quot;&gt;+ createTreasure(): void&lt;br/&gt;+ setTreasureExisting(Boolean): void&lt;br/&gt;+ getCurrentFoodEnum(): FoodNames&lt;br/&gt;+ getSpawnPositions(): Position[]&lt;br/&gt;+ setFoodExisting(Boolean): void&lt;br/&gt;+ getTreasureExisting(): Boolean&lt;br/&gt;+ getCurrenTreasure(): IObject&lt;br/&gt;- randomFood(): FoodNames&lt;br/&gt;- randomObstacle(): ObstacleNames&lt;br/&gt;+ getWallStructures(): IShape[]&lt;br/&gt;+ setCurrenTreasure(IObject): void&lt;br/&gt;+ getInstance(): ObjectManager&lt;br/&gt;+ getCurrentFood(): IObject&lt;br/&gt;- randomCoordinate(): Position&lt;br/&gt;+ getFoodExisting(): Boolean&lt;br/&gt;+ createWallStructures(): void&lt;br/&gt;+ createFood(): void&lt;/p&gt;" style="verticalAlign=top;align=left;overflow=fill;fontSize=14;fontFamily=Helvetica;html=1;rounded=0;shadow=0;comic=0;labelBackgroundColor=none;strokeWidth=1;" parent="1" vertex="1">
          <mxGeometry x="-711.9999999999998" y="-965" width="253" height="705" as="geometry" />
        </mxCell>
        <mxCell id="node24" value="&lt;p style=&quot;margin:0px;margin-top:4px;text-align:center;&quot;&gt;&lt;b&gt;ObstacleFactory&lt;/b&gt;&lt;/p&gt;&lt;hr size=&quot;1&quot;&gt;&lt;p style=&quot;margin:0 0 0 4px;line-height:1.6;&quot;&gt;- obstacleFactoryLogger: Logger&lt;/p&gt;&lt;hr size=&quot;1&quot;&gt;&lt;p style=&quot;margin:0 0 0 4px;line-height:1.6;&quot;&gt;+ createWallStructure(ObstacleNames, Position): IShape&lt;/p&gt;" style="verticalAlign=top;align=left;overflow=fill;fontSize=14;fontFamily=Helvetica;html=1;rounded=0;shadow=0;comic=0;labelBackgroundColor=none;strokeWidth=1;" parent="1" vertex="1">
          <mxGeometry x="600" y="-690" width="368" height="99" as="geometry" />
        </mxCell>
        <mxCell id="node28" value="&lt;p style=&quot;margin:0px;margin-top:4px;text-align:center;&quot;&gt;&lt;i&gt;&amp;lt;&amp;lt;enumeration&amp;gt;&amp;gt;&lt;/i&gt;&lt;br/&gt;&lt;b&gt;ObstacleNames&lt;/b&gt;&lt;/p&gt;&lt;hr size=&quot;1&quot;/&gt;&lt;p style=&quot;margin:0 0 0 4px;line-height:1.6;&quot;&gt;+ ZWALL: &lt;br/&gt;+ TWALL: &lt;br/&gt;+ LWALL: &lt;br/&gt;+ LINEWALL: &lt;/p&gt;&lt;hr size=&quot;1&quot;/&gt;&lt;p style=&quot;margin:0 0 0 4px;line-height:1.6;&quot;&gt;+ values(): ObstacleNames[]&lt;br/&gt;+ valueOf(String): ObstacleNames&lt;/p&gt;" style="verticalAlign=top;align=left;overflow=fill;fontSize=14;fontFamily=Helvetica;html=1;rounded=0;shadow=0;comic=0;labelBackgroundColor=none;strokeWidth=1;" parent="1" vertex="1">
          <mxGeometry x="-310" y="-1133" width="227" height="213" as="geometry" />
        </mxCell>
        <mxCell id="node26" value="&lt;p style=&quot;margin:0px;margin-top:4px;text-align:center;&quot;&gt;&lt;b&gt;Position&lt;/b&gt;&lt;/p&gt;&lt;hr size=&quot;1&quot;/&gt;&lt;p style=&quot;margin:0 0 0 4px;line-height:1.6;&quot;&gt;- x: int&lt;br/&gt;- y: int&lt;/p&gt;&lt;hr size=&quot;1&quot;/&gt;&lt;p style=&quot;margin:0 0 0 4px;line-height:1.6;&quot;&gt;+ setY(int): void&lt;br/&gt;+ getX(): int&lt;br/&gt;+ getY(): int&lt;br/&gt;+ setX(int): void&lt;/p&gt;" style="verticalAlign=top;align=left;overflow=fill;fontSize=14;fontFamily=Helvetica;html=1;rounded=0;shadow=0;comic=0;labelBackgroundColor=none;strokeWidth=1;" parent="1" vertex="1">
          <mxGeometry x="2259.9999999999995" y="-723" width="119" height="165" as="geometry" />
        </mxCell>
        <mxCell id="node37" value="&lt;p style=&quot;margin:0px;margin-top:4px;text-align:center;&quot;&gt;&lt;b&gt;SceneController&lt;/b&gt;&lt;/p&gt;&lt;hr size=&quot;1&quot;/&gt;&lt;p style=&quot;margin:0 0 0 4px;line-height:1.6;&quot;&gt;- stage: Stage&lt;br/&gt;- scene: Scene&lt;br/&gt;- root: Parent&lt;/p&gt;&lt;hr size=&quot;1&quot;/&gt;&lt;p style=&quot;margin:0 0 0 4px;line-height:1.6;&quot;&gt;+ switchToHelpScene(ActionEvent): void&lt;br/&gt;+ switchToGameScene(ActionEvent): void&lt;br/&gt;+ switchToMainMenuScene(ActionEvent): void&lt;br/&gt;+ resetButtonClick(ActionEvent): void&lt;br/&gt;+ exitScene(ActionEvent): void&lt;/p&gt;" style="verticalAlign=top;align=left;overflow=fill;fontSize=14;fontFamily=Helvetica;html=1;rounded=0;shadow=0;comic=0;labelBackgroundColor=none;strokeWidth=1;" parent="1" vertex="1">
          <mxGeometry x="-1230" y="685" width="295" height="239" as="geometry" />
        </mxCell>
        <mxCell id="node30" value="&lt;p style=&quot;margin:0px;margin-top:4px;text-align:center;&quot;&gt;&lt;b&gt;Score&lt;/b&gt;&lt;/p&gt;&lt;hr size=&quot;1&quot;/&gt;&lt;p style=&quot;margin:0 0 0 4px;line-height:1.6;&quot;&gt;- foodPoint: int&lt;br/&gt;- scoreLogger: Logger&lt;br/&gt;- instance: Score&lt;br/&gt;- score: int&lt;br/&gt;- treasurePoint: int&lt;br/&gt;- highScore: int&lt;/p&gt;&lt;hr size=&quot;1&quot;/&gt;&lt;p style=&quot;margin:0 0 0 4px;line-height:1.6;&quot;&gt;+ setHighScore(int): void&lt;br/&gt;+ updateHighScoreFile(): void&lt;br/&gt;+ getTreasurePoint(): int&lt;br/&gt;+ resetInstance(): void&lt;br/&gt;+ getInstance(): Score&lt;br/&gt;+ reset(): void&lt;br/&gt;+ getHighScore(): int&lt;br/&gt;- readHighScoreFile(): void&lt;br/&gt;+ readHighScoreFile(String): void&lt;br/&gt;+ updateHighScoreFile(String): void&lt;br/&gt;+ getFoodPoint(): int&lt;br/&gt;+ getScore(): int&lt;br/&gt;+ setScore(int): void&lt;/p&gt;" style="verticalAlign=top;align=left;overflow=fill;fontSize=14;fontFamily=Helvetica;html=1;rounded=0;shadow=0;comic=0;labelBackgroundColor=none;strokeWidth=1;" parent="1" vertex="1">
          <mxGeometry x="-271" y="455" width="233" height="459" as="geometry" />
        </mxCell>
        <mxCell id="node10" value="&lt;p style=&quot;margin:0px;margin-top:4px;text-align:center;&quot;&gt;&lt;b&gt;Snake&lt;/b&gt;&lt;/p&gt;&lt;hr size=&quot;1&quot;/&gt;&lt;p style=&quot;margin:0 0 0 4px;line-height:1.6;&quot;&gt;- directionEnum: Directions&lt;br/&gt;- startPosition: Position&lt;br/&gt;- instance: Snake&lt;br/&gt;- growing: boolean&lt;br/&gt;- snakeLogger: Logger&lt;br/&gt;- directionX: int[]&lt;br/&gt;- directionY: int[]&lt;br/&gt;- gameOver: boolean&lt;br/&gt;- positions: List&amp;lt;Position&amp;gt;&lt;br/&gt;- direction: int&lt;/p&gt;&lt;hr size=&quot;1&quot;/&gt;&lt;p style=&quot;margin:0 0 0 4px;line-height:1.6;&quot;&gt;+ selfDestroy(): void&lt;br/&gt;+ setDirection(int): void&lt;br/&gt;- decideDirections(): void&lt;br/&gt;+ reset(): void&lt;br/&gt;+ isGrowing(): boolean&lt;br/&gt;+ getDirections(): int&lt;br/&gt;+ getDirectionX(): int[]&lt;br/&gt;+ move(): void&lt;br/&gt;+ getDirection(): int&lt;br/&gt;+ getDirectionEnum(): Directions&lt;br/&gt;- checkBorder(): void&lt;br/&gt;+ setGrowing(boolean): void&lt;br/&gt;+ getPositions(): List&amp;lt;Position&amp;gt;&lt;br/&gt;+ setGameOver(boolean): void&lt;br/&gt;+ setDirectionEnum(Directions): void&lt;br/&gt;+ isGameOver(): boolean&lt;br/&gt;+ getInstance(): Snake&lt;br/&gt;+ getDirectionY(): int[]&lt;/p&gt;" style="verticalAlign=top;align=left;overflow=fill;fontSize=14;fontFamily=Helvetica;html=1;rounded=0;shadow=0;comic=0;labelBackgroundColor=none;strokeWidth=1;" parent="1" vertex="1">
          <mxGeometry x="-1202.0000000000002" y="-386" width="239" height="685" as="geometry" />
        </mxCell>
        <mxCell id="node2" value="&lt;p style=&quot;margin:0px;margin-top:4px;text-align:center;&quot;&gt;&lt;b&gt;SnakeImageFactory&lt;/b&gt;&lt;/p&gt;&lt;hr size=&quot;1&quot;/&gt;&lt;p style=&quot;margin:0 0 0 4px;line-height:1.6;&quot;&gt;- snakeImages: Image[]&lt;/p&gt;&lt;hr size=&quot;1&quot;/&gt;&lt;p style=&quot;margin:0 0 0 4px;line-height:1.6;&quot;&gt;+ createSnakeHeadImage(int): Image&lt;/p&gt;" style="verticalAlign=top;align=left;overflow=fill;fontSize=14;fontFamily=Helvetica;html=1;rounded=0;shadow=0;comic=0;labelBackgroundColor=none;strokeWidth=1;" parent="1" vertex="1">
          <mxGeometry y="-149" width="253" height="99" as="geometry" />
        </mxCell>
        <mxCell id="R7NYiEnnaSbIDZajH532-15" style="edgeStyle=orthogonalEdgeStyle;rounded=0;orthogonalLoop=1;jettySize=auto;html=1;exitX=0.5;exitY=1;exitDx=0;exitDy=0;entryX=0.5;entryY=0;entryDx=0;entryDy=0;" parent="1" source="node0" target="node37" edge="1">
          <mxGeometry relative="1" as="geometry" />
        </mxCell>
        <mxCell id="node0" value="&lt;p style=&quot;margin:0px;margin-top:4px;text-align:center;&quot;&gt;&lt;b&gt;StartScene&lt;/b&gt;&lt;/p&gt;&lt;hr size=&quot;1&quot;/&gt;&lt;p style=&quot;margin:0 0 0 4px;line-height:1.6;&quot;&gt;- instance: StartScene&lt;/p&gt;&lt;hr size=&quot;1&quot;/&gt;&lt;p style=&quot;margin:0 0 0 4px;line-height:1.6;&quot;&gt;+ createScene(Stage): void&lt;br/&gt;+ getInstance(): StartScene&lt;/p&gt;" style="verticalAlign=top;align=left;overflow=fill;fontSize=14;fontFamily=Helvetica;html=1;rounded=0;shadow=0;comic=0;labelBackgroundColor=none;strokeWidth=1;" parent="1" vertex="1">
          <mxGeometry x="-1053" y="442" width="186" height="120" as="geometry" />
        </mxCell>
        <mxCell id="node9" value="&lt;p style=&quot;margin:0px;margin-top:4px;text-align:center;&quot;&gt;&lt;b&gt;TWall&lt;/b&gt;&lt;/p&gt;&lt;hr size=&quot;1&quot;/&gt;" style="verticalAlign=top;align=left;overflow=fill;fontSize=14;fontFamily=Helvetica;html=1;rounded=0;shadow=0;comic=0;labelBackgroundColor=none;strokeWidth=1;" parent="1" vertex="1">
          <mxGeometry x="1157.4999999999998" y="-1110" width="88" height="31" as="geometry" />
        </mxCell>
        <mxCell id="node19" value="&lt;p style=&quot;margin:0px;margin-top:4px;text-align:center;&quot;&gt;&lt;b&gt;Treasure&lt;/b&gt;&lt;/p&gt;&lt;hr size=&quot;1&quot;/&gt;" style="verticalAlign=top;align=left;overflow=fill;fontSize=14;fontFamily=Helvetica;html=1;rounded=0;shadow=0;comic=0;labelBackgroundColor=none;strokeWidth=1;" parent="1" vertex="1">
          <mxGeometry x="1146.5699999999997" y="163" width="106" height="29" as="geometry" />
        </mxCell>
        <mxCell id="node16" value="&lt;p style=&quot;margin:0px;margin-top:4px;text-align:center;&quot;&gt;&lt;b&gt;UiManager&lt;/b&gt;&lt;/p&gt;&lt;hr size=&quot;1&quot;/&gt;&lt;p style=&quot;margin:0 0 0 4px;line-height:1.6;&quot;&gt;- highScoreField: Label&lt;br/&gt;- snakeHead: Image&lt;br/&gt;- instance: UiManager&lt;br/&gt;- snakeBody: Image&lt;br/&gt;- uiManagerLogger: Logger&lt;br/&gt;- scoreField: Label&lt;/p&gt;&lt;hr size=&quot;1&quot;/&gt;&lt;p style=&quot;margin:0 0 0 4px;line-height:1.6;&quot;&gt;- drawSnake(): void&lt;br/&gt;- createImage(Image, Position): void&lt;br/&gt;+ getInstance(): UiManager&lt;br/&gt;+ updateGameField(): void&lt;br/&gt;- createVisualObject(): void&lt;br/&gt;+ getHighScoreField(): Label&lt;br/&gt;+ getScoreField(): Label&lt;/p&gt;" style="verticalAlign=top;align=left;overflow=fill;fontSize=14;fontFamily=Helvetica;html=1;rounded=0;shadow=0;comic=0;labelBackgroundColor=none;strokeWidth=1;" parent="1" vertex="1">
          <mxGeometry x="-270" y="-50" width="231" height="349" as="geometry" />
        </mxCell>
        <mxCell id="node8" value="&lt;p style=&quot;margin:0px;margin-top:4px;text-align:center;&quot;&gt;&lt;b&gt;Wall&lt;/b&gt;&lt;/p&gt;&lt;hr size=&quot;1&quot;/&gt;&lt;p style=&quot;margin:0 0 0 4px;line-height:1.6;&quot;&gt;- wallLogger: Logger&lt;/p&gt;" style="verticalAlign=top;align=left;overflow=fill;fontSize=14;fontFamily=Helvetica;html=1;rounded=0;shadow=0;comic=0;labelBackgroundColor=none;strokeWidth=1;" parent="1" vertex="1">
          <mxGeometry x="1720" y="-669.5" width="147" height="58" as="geometry" />
        </mxCell>
        <mxCell id="node11" value="&lt;p style=&quot;margin:0px;margin-top:4px;text-align:center;&quot;&gt;&lt;b&gt;ZWall&lt;/b&gt;&lt;/p&gt;&lt;hr size=&quot;1&quot;/&gt;" style="verticalAlign=top;align=left;overflow=fill;fontSize=14;fontFamily=Helvetica;html=1;rounded=0;shadow=0;comic=0;labelBackgroundColor=none;strokeWidth=1;" parent="1" vertex="1">
          <mxGeometry x="1410" y="-1110" width="89" height="31" as="geometry" />
        </mxCell>
        <mxCell id="R7NYiEnnaSbIDZajH532-89" value="Use" style="endArrow=open;endSize=12;dashed=1;html=1;rounded=0;exitX=0.5;exitY=1;exitDx=0;exitDy=0;entryX=0.5;entryY=0;entryDx=0;entryDy=0;" parent="1" source="node5" target="node4" edge="1">
          <mxGeometry width="160" relative="1" as="geometry">
            <mxPoint x="1350" y="-590" as="sourcePoint" />
            <mxPoint x="1510" y="-590" as="targetPoint" />
          </mxGeometry>
        </mxCell>
        <mxCell id="R7NYiEnnaSbIDZajH532-90" value="Use" style="endArrow=open;endSize=12;dashed=1;html=1;rounded=0;exitX=0.5;exitY=0;exitDx=0;exitDy=0;entryX=0.5;entryY=1;entryDx=0;entryDy=0;" parent="1" source="node25" target="node13" edge="1">
          <mxGeometry width="160" relative="1" as="geometry">
            <mxPoint x="1310" y="-540" as="sourcePoint" />
            <mxPoint x="1470" y="-540" as="targetPoint" />
          </mxGeometry>
        </mxCell>
        <mxCell id="R7NYiEnnaSbIDZajH532-95" value="1" style="endArrow=open;html=1;endSize=12;startArrow=diamondThin;startSize=14;startFill=0;edgeStyle=orthogonalEdgeStyle;align=left;verticalAlign=bottom;rounded=0;entryX=1;entryY=0.5;entryDx=0;entryDy=0;" parent="1" target="node32" edge="1">
          <mxGeometry x="0.8282" y="-8" relative="1" as="geometry">
            <mxPoint x="-1200" y="-42" as="sourcePoint" />
            <mxPoint x="-1190" y="30" as="targetPoint" />
            <mxPoint as="offset" />
          </mxGeometry>
        </mxCell>
        <mxCell id="R7NYiEnnaSbIDZajH532-96" value="1" style="endArrow=open;html=1;endSize=12;startArrow=diamondThin;startSize=14;startFill=0;edgeStyle=orthogonalEdgeStyle;align=left;verticalAlign=bottom;rounded=0;exitX=0;exitY=0.5;exitDx=0;exitDy=0;entryX=1.008;entryY=0.299;entryDx=0;entryDy=0;entryPerimeter=0;" parent="1" source="node12" target="node3" edge="1">
          <mxGeometry x="0.7701" y="-6" relative="1" as="geometry">
            <mxPoint x="-450" y="-750" as="sourcePoint" />
            <mxPoint x="-290" y="-750" as="targetPoint" />
            <mxPoint as="offset" />
          </mxGeometry>
        </mxCell>
        <mxCell id="R7NYiEnnaSbIDZajH532-97" value="1" style="endArrow=open;html=1;endSize=12;startArrow=diamondThin;startSize=14;startFill=0;edgeStyle=orthogonalEdgeStyle;align=left;verticalAlign=bottom;rounded=0;exitX=0;exitY=0.5;exitDx=0;exitDy=0;entryX=1.002;entryY=0.104;entryDx=0;entryDy=0;entryPerimeter=0;" parent="1" source="node28" target="node3" edge="1">
          <mxGeometry x="0.8694" y="-8" relative="1" as="geometry">
            <mxPoint x="-490" y="-1040" as="sourcePoint" />
            <mxPoint x="-330" y="-1040" as="targetPoint" />
            <mxPoint as="offset" />
          </mxGeometry>
        </mxCell>
        <mxCell id="R7NYiEnnaSbIDZajH532-98" value="Use" style="endArrow=open;endSize=12;dashed=1;html=1;rounded=0;exitX=1;exitY=0.5;exitDx=0;exitDy=0;entryX=0.5;entryY=1;entryDx=0;entryDy=0;" parent="1" edge="1">
          <mxGeometry width="160" relative="1" as="geometry">
            <mxPoint x="253" y="-97.5" as="sourcePoint" />
            <mxPoint x="754" y="-227" as="targetPoint" />
            <Array as="points">
              <mxPoint x="754" y="-97" />
            </Array>
          </mxGeometry>
        </mxCell>
        <mxCell id="R7NYiEnnaSbIDZajH532-99" value="Use" style="endArrow=open;endSize=12;dashed=1;html=1;rounded=0;entryX=0;entryY=0.5;entryDx=0;entryDy=0;" parent="1" target="node35" edge="1">
          <mxGeometry width="160" relative="1" as="geometry">
            <mxPoint x="280" y="-300" as="sourcePoint" />
            <mxPoint x="490" y="-300" as="targetPoint" />
            <Array as="points">
              <mxPoint x="420" y="-300" />
              <mxPoint x="420" y="-244" />
            </Array>
          </mxGeometry>
        </mxCell>
        <mxCell id="R7NYiEnnaSbIDZajH532-100" value="Use" style="endArrow=open;endSize=12;dashed=1;html=1;rounded=0;exitX=0.5;exitY=1;exitDx=0;exitDy=0;entryX=0.5;entryY=0;entryDx=0;entryDy=0;" parent="1" source="node20" target="node35" edge="1">
          <mxGeometry width="160" relative="1" as="geometry">
            <mxPoint x="770" y="-320" as="sourcePoint" />
            <mxPoint x="930" y="-320" as="targetPoint" />
          </mxGeometry>
        </mxCell>
        <mxCell id="R7NYiEnnaSbIDZajH532-102" value="Use" style="endArrow=open;endSize=12;dashed=1;html=1;rounded=0;exitX=1;exitY=0.5;exitDx=0;exitDy=0;entryX=0;entryY=0.5;entryDx=0;entryDy=0;" parent="1" source="node24" target="node4" edge="1">
          <mxGeometry width="160" relative="1" as="geometry">
            <mxPoint x="1020" y="-640" as="sourcePoint" />
            <mxPoint x="1180" y="-640" as="targetPoint" />
          </mxGeometry>
        </mxCell>
        <mxCell id="R7NYiEnnaSbIDZajH532-103" value="Use" style="endArrow=open;endSize=12;dashed=1;html=1;rounded=0;exitX=1;exitY=0.5;exitDx=0;exitDy=0;entryX=0;entryY=0.5;entryDx=0;entryDy=0;" parent="1" source="node20" target="node13" edge="1">
          <mxGeometry width="160" relative="1" as="geometry">
            <mxPoint x="930" y="-420" as="sourcePoint" />
            <mxPoint x="1090" y="-420" as="targetPoint" />
          </mxGeometry>
        </mxCell>
        <mxCell id="R7NYiEnnaSbIDZajH532-104" value="" style="endArrow=open;html=1;endSize=12;startArrow=diamondThin;startSize=14;startFill=1;edgeStyle=orthogonalEdgeStyle;align=left;verticalAlign=bottom;rounded=0;exitX=1;exitY=0.5;exitDx=0;exitDy=0;entryX=0;entryY=0.5;entryDx=0;entryDy=0;" parent="1" source="node3" target="node24" edge="1">
          <mxGeometry x="-0.9282" y="18" relative="1" as="geometry">
            <mxPoint x="-360" y="-570" as="sourcePoint" />
            <mxPoint x="-200" y="-570" as="targetPoint" />
            <mxPoint as="offset" />
          </mxGeometry>
        </mxCell>
        <mxCell id="R7NYiEnnaSbIDZajH532-105" value="" style="endArrow=open;html=1;endSize=12;startArrow=diamondThin;startSize=14;startFill=1;edgeStyle=orthogonalEdgeStyle;align=left;verticalAlign=bottom;rounded=0;exitX=1.001;exitY=0.545;exitDx=0;exitDy=0;exitPerimeter=0;entryX=0;entryY=0.5;entryDx=0;entryDy=0;" parent="1" source="node3" target="node20" edge="1">
          <mxGeometry x="-1" y="3" relative="1" as="geometry">
            <mxPoint x="-390" y="-550" as="sourcePoint" />
            <mxPoint x="-230" y="-550" as="targetPoint" />
          </mxGeometry>
        </mxCell>
        <mxCell id="R7NYiEnnaSbIDZajH532-106" value="Extends" style="endArrow=block;endSize=16;endFill=0;html=1;rounded=0;exitX=0.5;exitY=0;exitDx=0;exitDy=0;entryX=0.5;entryY=1;entryDx=0;entryDy=0;" parent="1" source="node6" target="node25" edge="1">
          <mxGeometry width="160" relative="1" as="geometry">
            <mxPoint x="1050" y="120" as="sourcePoint" />
            <mxPoint x="1210" y="120" as="targetPoint" />
            <Array as="points">
              <mxPoint x="1050" y="80" />
              <mxPoint x="1319" y="80" />
            </Array>
          </mxGeometry>
        </mxCell>
        <mxCell id="R7NYiEnnaSbIDZajH532-107" value="Extends" style="endArrow=block;endSize=16;endFill=0;html=1;rounded=0;exitX=0.5;exitY=0;exitDx=0;exitDy=0;entryX=0.5;entryY=1;entryDx=0;entryDy=0;" parent="1" source="node19" target="node25" edge="1">
          <mxGeometry width="160" relative="1" as="geometry">
            <mxPoint x="1200" y="163" as="sourcePoint" />
            <mxPoint x="1469" y="-1" as="targetPoint" />
            <Array as="points">
              <mxPoint x="1200" y="80" />
              <mxPoint x="1319" y="80" />
            </Array>
          </mxGeometry>
        </mxCell>
        <mxCell id="R7NYiEnnaSbIDZajH532-108" value="Extends" style="endArrow=block;endSize=16;endFill=0;html=1;rounded=0;exitX=0.5;exitY=0;exitDx=0;exitDy=0;entryX=0.5;entryY=1;entryDx=0;entryDy=0;" parent="1" source="node33" target="node25" edge="1">
          <mxGeometry width="160" relative="1" as="geometry">
            <mxPoint x="1440" y="124" as="sourcePoint" />
            <mxPoint x="1709" y="-40" as="targetPoint" />
            <Array as="points">
              <mxPoint x="1319" y="100" />
              <mxPoint x="1319" y="50" />
            </Array>
          </mxGeometry>
        </mxCell>
        <mxCell id="R7NYiEnnaSbIDZajH532-109" value="Extends" style="endArrow=block;endSize=16;endFill=0;html=1;rounded=0;exitX=0.5;exitY=0;exitDx=0;exitDy=0;entryX=0.5;entryY=1;entryDx=0;entryDy=0;" parent="1" source="node31" target="node25" edge="1">
          <mxGeometry width="160" relative="1" as="geometry">
            <mxPoint x="1080" y="193" as="sourcePoint" />
            <mxPoint x="1349" y="29" as="targetPoint" />
            <Array as="points">
              <mxPoint x="1424" y="80" />
              <mxPoint x="1320" y="80" />
            </Array>
          </mxGeometry>
        </mxCell>
        <mxCell id="R7NYiEnnaSbIDZajH532-110" value="Extends" style="endArrow=block;endSize=16;endFill=0;html=1;rounded=0;exitX=0.5;exitY=0;exitDx=0;exitDy=0;entryX=0.5;entryY=1;entryDx=0;entryDy=0;" parent="1" target="node25" edge="1">
          <mxGeometry width="160" relative="1" as="geometry">
            <mxPoint x="1527.15" y="163" as="sourcePoint" />
            <mxPoint x="1527.15" y="-1" as="targetPoint" />
            <Array as="points">
              <mxPoint x="1527" y="80" />
              <mxPoint x="1319" y="80" />
            </Array>
          </mxGeometry>
        </mxCell>
        <mxCell id="R7NYiEnnaSbIDZajH532-111" value="Extends" style="endArrow=block;endSize=16;endFill=0;html=1;rounded=0;exitX=0.5;exitY=0;exitDx=0;exitDy=0;entryX=0.5;entryY=1;entryDx=0;entryDy=0;" parent="1" source="node17" target="node25" edge="1">
          <mxGeometry width="160" relative="1" as="geometry">
            <mxPoint x="1339" y="183" as="sourcePoint" />
            <mxPoint x="1339" y="19" as="targetPoint" />
            <Array as="points">
              <mxPoint x="1640" y="80" />
              <mxPoint x="1319" y="80" />
            </Array>
          </mxGeometry>
        </mxCell>
        <mxCell id="R7NYiEnnaSbIDZajH532-114" value="Extends" style="endArrow=block;endSize=16;endFill=0;html=1;rounded=0;exitX=0.5;exitY=1;exitDx=0;exitDy=0;entryX=0.5;entryY=0;entryDx=0;entryDy=0;" parent="1" source="node23" target="node5" edge="1">
          <mxGeometry width="160" relative="1" as="geometry">
            <mxPoint x="1330" y="-1010" as="sourcePoint" />
            <mxPoint x="1490" y="-1010" as="targetPoint" />
          </mxGeometry>
        </mxCell>
        <mxCell id="R7NYiEnnaSbIDZajH532-115" value="Extends" style="endArrow=block;endSize=16;endFill=0;html=1;rounded=0;exitX=0.5;exitY=1;exitDx=0;exitDy=0;entryX=0.5;entryY=0;entryDx=0;entryDy=0;" parent="1" source="node11" target="node5" edge="1">
          <mxGeometry width="160" relative="1" as="geometry">
            <mxPoint x="1480" y="-990" as="sourcePoint" />
            <mxPoint x="1640" y="-990" as="targetPoint" />
            <Array as="points">
              <mxPoint x="1455" y="-990" />
              <mxPoint x="1321" y="-990" />
            </Array>
          </mxGeometry>
        </mxCell>
        <mxCell id="R7NYiEnnaSbIDZajH532-116" value="Extends" style="endArrow=block;endSize=16;endFill=0;html=1;rounded=0;exitX=0.5;exitY=1;exitDx=0;exitDy=0;entryX=0.5;entryY=0;entryDx=0;entryDy=0;" parent="1" source="node36" target="node5" edge="1">
          <mxGeometry width="160" relative="1" as="geometry">
            <mxPoint x="1564" y="-1079" as="sourcePoint" />
            <mxPoint x="1430" y="-920" as="targetPoint" />
            <Array as="points">
              <mxPoint x="1564" y="-990" />
              <mxPoint x="1321" y="-990" />
            </Array>
          </mxGeometry>
        </mxCell>
        <mxCell id="R7NYiEnnaSbIDZajH532-117" value="Extends" style="endArrow=block;endSize=16;endFill=0;html=1;rounded=0;exitX=0.5;exitY=1;exitDx=0;exitDy=0;entryX=0.5;entryY=0;entryDx=0;entryDy=0;" parent="1" source="node9" target="node5" edge="1">
          <mxGeometry width="160" relative="1" as="geometry">
            <mxPoint x="1475" y="-1059" as="sourcePoint" />
            <mxPoint x="1341" y="-900" as="targetPoint" />
            <Array as="points">
              <mxPoint x="1200" y="-990" />
              <mxPoint x="1321" y="-990" />
            </Array>
          </mxGeometry>
        </mxCell>
        <mxCell id="R7NYiEnnaSbIDZajH532-118" value="Extends" style="endArrow=block;endSize=16;endFill=0;html=1;rounded=0;exitX=0.5;exitY=1;exitDx=0;exitDy=0;entryX=0.5;entryY=0;entryDx=0;entryDy=0;" parent="1" source="node7" target="node5" edge="1">
          <mxGeometry width="160" relative="1" as="geometry">
            <mxPoint x="1485" y="-1049" as="sourcePoint" />
            <mxPoint x="1351" y="-890" as="targetPoint" />
            <Array as="points">
              <mxPoint x="1089" y="-990" />
              <mxPoint x="1320" y="-990" />
            </Array>
          </mxGeometry>
        </mxCell>
        <mxCell id="R7NYiEnnaSbIDZajH532-119" value="Extends" style="endArrow=block;endSize=16;endFill=0;html=1;rounded=0;exitX=0.5;exitY=1;exitDx=0;exitDy=0;entryX=1;entryY=0.5;entryDx=0;entryDy=0;" parent="1" source="node8" target="node25" edge="1">
          <mxGeometry width="160" relative="1" as="geometry">
            <mxPoint x="1820" y="-510" as="sourcePoint" />
            <mxPoint x="1980" y="-510" as="targetPoint" />
            <Array as="points">
              <mxPoint x="1790" y="-116" />
            </Array>
          </mxGeometry>
        </mxCell>
        <mxCell id="R7NYiEnnaSbIDZajH532-121" value="1" style="endArrow=open;html=1;endSize=12;startArrow=diamondThin;startSize=14;startFill=1;edgeStyle=orthogonalEdgeStyle;align=left;verticalAlign=bottom;rounded=0;exitX=0.5;exitY=0;exitDx=0;exitDy=0;" parent="1" source="node36" target="node8" edge="1">
          <mxGeometry x="0.9518" y="7" relative="1" as="geometry">
            <mxPoint x="1630" y="-1130" as="sourcePoint" />
            <mxPoint x="1790" y="-1130" as="targetPoint" />
            <Array as="points">
              <mxPoint x="1563" y="-1200" />
              <mxPoint x="1793" y="-1200" />
            </Array>
            <mxPoint as="offset" />
          </mxGeometry>
        </mxCell>
        <mxCell id="R7NYiEnnaSbIDZajH532-122" value="1" style="endArrow=open;html=1;endSize=12;startArrow=diamondThin;startSize=14;startFill=1;edgeStyle=orthogonalEdgeStyle;align=left;verticalAlign=bottom;rounded=0;exitX=0.5;exitY=0;exitDx=0;exitDy=0;entryX=0.25;entryY=0;entryDx=0;entryDy=0;" parent="1" source="node11" target="node8" edge="1">
          <mxGeometry x="0.9565" y="3" relative="1" as="geometry">
            <mxPoint x="1490" y="-1150" as="sourcePoint" />
            <mxPoint x="1650" y="-1150" as="targetPoint" />
            <Array as="points">
              <mxPoint x="1455" y="-1210" />
              <mxPoint x="1757" y="-1210" />
            </Array>
            <mxPoint as="offset" />
          </mxGeometry>
        </mxCell>
        <mxCell id="R7NYiEnnaSbIDZajH532-123" value="1" style="endArrow=open;html=1;endSize=12;startArrow=diamondThin;startSize=14;startFill=1;edgeStyle=orthogonalEdgeStyle;align=left;verticalAlign=bottom;rounded=0;exitX=0.5;exitY=0;exitDx=0;exitDy=0;entryX=0;entryY=0;entryDx=0;entryDy=0;" parent="1" source="node23" target="node8" edge="1">
          <mxGeometry x="0.9613" y="10" relative="1" as="geometry">
            <mxPoint x="1350" y="-1160" as="sourcePoint" />
            <mxPoint x="1510" y="-1160" as="targetPoint" />
            <Array as="points">
              <mxPoint x="1321" y="-1220" />
              <mxPoint x="1720" y="-1220" />
            </Array>
            <mxPoint as="offset" />
          </mxGeometry>
        </mxCell>
        <mxCell id="R7NYiEnnaSbIDZajH532-124" value="1" style="endArrow=open;html=1;endSize=12;startArrow=diamondThin;startSize=14;startFill=1;edgeStyle=orthogonalEdgeStyle;align=left;verticalAlign=bottom;rounded=0;exitX=0.5;exitY=0;exitDx=0;exitDy=0;entryX=0.75;entryY=0;entryDx=0;entryDy=0;" parent="1" source="node9" target="node8" edge="1">
          <mxGeometry x="0.9666" y="10" relative="1" as="geometry">
            <mxPoint x="1220" y="-1170" as="sourcePoint" />
            <mxPoint x="1380" y="-1170" as="targetPoint" />
            <Array as="points">
              <mxPoint x="1201" y="-1190" />
              <mxPoint x="1830" y="-1190" />
            </Array>
            <mxPoint as="offset" />
          </mxGeometry>
        </mxCell>
        <mxCell id="R7NYiEnnaSbIDZajH532-125" value="1" style="endArrow=open;html=1;endSize=12;startArrow=diamondThin;startSize=14;startFill=1;edgeStyle=orthogonalEdgeStyle;align=left;verticalAlign=bottom;rounded=0;exitX=0.5;exitY=0;exitDx=0;exitDy=0;entryX=1;entryY=0;entryDx=0;entryDy=0;" parent="1" source="node7" target="node8" edge="1">
          <mxGeometry x="0.9698" y="3" relative="1" as="geometry">
            <mxPoint x="1120" y="-1150" as="sourcePoint" />
            <mxPoint x="1280" y="-1150" as="targetPoint" />
            <Array as="points">
              <mxPoint x="1089" y="-1180" />
              <mxPoint x="1867" y="-1180" />
            </Array>
            <mxPoint as="offset" />
          </mxGeometry>
        </mxCell>
        <mxCell id="R7NYiEnnaSbIDZajH532-126" value="1" style="endArrow=open;html=1;endSize=12;startArrow=diamondThin;startSize=14;startFill=1;edgeStyle=orthogonalEdgeStyle;align=left;verticalAlign=bottom;rounded=0;exitX=0;exitY=0.5;exitDx=0;exitDy=0;entryX=1;entryY=0.5;entryDx=0;entryDy=0;" parent="1" source="node26" target="node8" edge="1">
          <mxGeometry x="-0.8473" relative="1" as="geometry">
            <mxPoint x="1870" y="-640" as="sourcePoint" />
            <mxPoint x="2030" y="-640" as="targetPoint" />
            <mxPoint y="1" as="offset" />
          </mxGeometry>
        </mxCell>
        <mxCell id="R7NYiEnnaSbIDZajH532-129" value="" style="endArrow=open;html=1;endSize=12;startArrow=diamondThin;startSize=14;startFill=1;edgeStyle=orthogonalEdgeStyle;align=left;verticalAlign=bottom;rounded=0;exitX=0.5;exitY=1;exitDx=0;exitDy=0;entryX=0.5;entryY=1;entryDx=0;entryDy=0;" parent="1" source="node26" target="node17" edge="1">
          <mxGeometry x="-1" y="3" relative="1" as="geometry">
            <mxPoint x="2390" y="-430" as="sourcePoint" />
            <mxPoint x="2550" y="-430" as="targetPoint" />
            <Array as="points">
              <mxPoint x="2319" y="250" />
              <mxPoint x="1639" y="250" />
            </Array>
          </mxGeometry>
        </mxCell>
        <mxCell id="R7NYiEnnaSbIDZajH532-132" value="" style="endArrow=open;html=1;endSize=12;startArrow=diamondThin;startSize=14;startFill=1;edgeStyle=orthogonalEdgeStyle;align=left;verticalAlign=bottom;rounded=0;exitX=0.5;exitY=1;exitDx=0;exitDy=0;entryX=0.5;entryY=1;entryDx=0;entryDy=0;" parent="1" source="node26" target="node29" edge="1">
          <mxGeometry x="-1" y="3" relative="1" as="geometry">
            <mxPoint x="1920" y="-50" as="sourcePoint" />
            <mxPoint x="2080" y="-50" as="targetPoint" />
            <Array as="points">
              <mxPoint x="2319" y="250" />
              <mxPoint x="1528" y="250" />
            </Array>
          </mxGeometry>
        </mxCell>
        <mxCell id="R7NYiEnnaSbIDZajH532-133" value="" style="endArrow=open;html=1;endSize=12;startArrow=diamondThin;startSize=14;startFill=1;edgeStyle=orthogonalEdgeStyle;align=left;verticalAlign=bottom;rounded=0;exitX=0.5;exitY=1;exitDx=0;exitDy=0;entryX=0.5;entryY=1;entryDx=0;entryDy=0;" parent="1" source="node26" target="node31" edge="1">
          <mxGeometry x="-1" y="3" relative="1" as="geometry">
            <mxPoint x="2430" y="-480" as="sourcePoint" />
            <mxPoint x="2590" y="-480" as="targetPoint" />
            <Array as="points">
              <mxPoint x="2319" y="250" />
              <mxPoint x="1424" y="250" />
            </Array>
          </mxGeometry>
        </mxCell>
        <mxCell id="R7NYiEnnaSbIDZajH532-134" value="" style="endArrow=open;html=1;endSize=12;startArrow=diamondThin;startSize=14;startFill=1;edgeStyle=orthogonalEdgeStyle;align=left;verticalAlign=bottom;rounded=0;exitX=0.5;exitY=1;exitDx=0;exitDy=0;entryX=0.5;entryY=1;entryDx=0;entryDy=0;" parent="1" source="node26" target="node33" edge="1">
          <mxGeometry x="-1" y="3" relative="1" as="geometry">
            <mxPoint x="2470" y="-310" as="sourcePoint" />
            <mxPoint x="2630" y="-310" as="targetPoint" />
            <Array as="points">
              <mxPoint x="2320" y="250" />
              <mxPoint x="1319" y="250" />
            </Array>
          </mxGeometry>
        </mxCell>
        <mxCell id="R7NYiEnnaSbIDZajH532-135" value="" style="endArrow=open;html=1;endSize=12;startArrow=diamondThin;startSize=14;startFill=1;edgeStyle=orthogonalEdgeStyle;align=left;verticalAlign=bottom;rounded=0;exitX=0.5;exitY=1;exitDx=0;exitDy=0;entryX=0.5;entryY=1;entryDx=0;entryDy=0;" parent="1" source="node26" target="node19" edge="1">
          <mxGeometry x="-1" y="3" relative="1" as="geometry">
            <mxPoint x="2360" y="-520" as="sourcePoint" />
            <mxPoint x="2520" y="-520" as="targetPoint" />
            <Array as="points">
              <mxPoint x="2320" y="250" />
              <mxPoint x="1200" y="250" />
            </Array>
          </mxGeometry>
        </mxCell>
        <mxCell id="R7NYiEnnaSbIDZajH532-136" value="1" style="endArrow=open;html=1;endSize=12;startArrow=diamondThin;startSize=14;startFill=1;edgeStyle=orthogonalEdgeStyle;align=left;verticalAlign=bottom;rounded=0;exitX=0.5;exitY=1;exitDx=0;exitDy=0;entryX=0.5;entryY=1;entryDx=0;entryDy=0;" parent="1" source="node26" target="node6" edge="1">
          <mxGeometry x="-0.9738" y="1" relative="1" as="geometry">
            <mxPoint x="2400" y="-450" as="sourcePoint" />
            <mxPoint x="2560" y="-450" as="targetPoint" />
            <Array as="points">
              <mxPoint x="2320" y="250" />
              <mxPoint x="1050" y="250" />
            </Array>
            <mxPoint as="offset" />
          </mxGeometry>
        </mxCell>
        <mxCell id="R7NYiEnnaSbIDZajH532-138" value="" style="endArrow=open;startArrow=cross;endFill=0;startFill=0;endSize=8;startSize=10;html=1;rounded=0;exitX=0.5;exitY=0;exitDx=0;exitDy=0;entryX=0.5;entryY=0;entryDx=0;entryDy=0;" parent="1" source="node3" target="node26" edge="1">
          <mxGeometry width="160" relative="1" as="geometry">
            <mxPoint x="440" y="-1400" as="sourcePoint" />
            <mxPoint x="2030" y="-1380" as="targetPoint" />
            <Array as="points">
              <mxPoint x="-585" y="-1290" />
              <mxPoint x="2320" y="-1290" />
            </Array>
          </mxGeometry>
        </mxCell>
        <mxCell id="R7NYiEnnaSbIDZajH532-139" value="" style="endArrow=open;html=1;endSize=12;startArrow=diamondThin;startSize=14;startFill=1;edgeStyle=orthogonalEdgeStyle;align=left;verticalAlign=bottom;rounded=0;exitX=0.5;exitY=0;exitDx=0;exitDy=0;entryX=0.5;entryY=1;entryDx=0;entryDy=0;" parent="1" source="node22" target="node1" edge="1">
          <mxGeometry x="-1" y="3" relative="1" as="geometry">
            <mxPoint x="-570" y="1060" as="sourcePoint" />
            <mxPoint x="-410" y="1060" as="targetPoint" />
          </mxGeometry>
        </mxCell>
        <mxCell id="UFn8JdXyG-kBsa06YzI1-1" value="Wird verwendet von:&lt;br&gt;- LineWall&lt;br&gt;-TWall&lt;br&gt;- CrossWall&lt;br&gt;-ZWall&lt;br&gt;- LWall&lt;br&gt;- GameManager&lt;br&gt;- ImageFactory&lt;br&gt;-SnakeImageFactory&lt;br&gt;-Score&lt;br&gt;-UI-Manager&lt;br&gt;-GameField&lt;br&gt;- Snake" style="shape=callout;whiteSpace=wrap;html=1;perimeter=calloutPerimeter;" vertex="1" parent="1">
          <mxGeometry x="350" y="-1170" width="120" height="250" as="geometry" />
        </mxCell>
        <mxCell id="UFn8JdXyG-kBsa06YzI1-3" value="Use" style="endArrow=open;endSize=12;dashed=1;html=1;rounded=0;exitX=1;exitY=0.5;exitDx=0;exitDy=0;entryX=0;entryY=0.5;entryDx=0;entryDy=0;" edge="1" parent="1">
          <mxGeometry width="160" relative="1" as="geometry">
            <mxPoint x="-963.0000000000002" y="-50" as="sourcePoint" />
            <mxPoint x="-692" y="196" as="targetPoint" />
            <Array as="points">
              <mxPoint x="-780" y="-50" />
              <mxPoint x="-780" y="196" />
            </Array>
            <mxPoint as="offset" />
          </mxGeometry>
        </mxCell>
        <mxCell id="UFn8JdXyG-kBsa06YzI1-5" value="Use" style="endArrow=open;endSize=12;dashed=1;html=1;rounded=0;entryX=0.5;entryY=1;entryDx=0;entryDy=0;exitX=0.5;exitY=0;exitDx=0;exitDy=0;" edge="1" parent="1" source="node27" target="node3">
          <mxGeometry width="160" relative="1" as="geometry">
            <mxPoint x="-630" y="-60" as="sourcePoint" />
            <mxPoint x="-470" y="-60" as="targetPoint" />
          </mxGeometry>
        </mxCell>
        <mxCell id="UFn8JdXyG-kBsa06YzI1-6" value="Use" style="endArrow=open;endSize=12;dashed=1;html=1;rounded=0;exitX=0.5;exitY=1;exitDx=0;exitDy=0;entryX=0.5;entryY=0;entryDx=0;entryDy=0;" edge="1" parent="1" source="node27" target="node1">
          <mxGeometry width="160" relative="1" as="geometry">
            <mxPoint x="-600" y="550" as="sourcePoint" />
            <mxPoint x="-440" y="550" as="targetPoint" />
          </mxGeometry>
        </mxCell>
        <mxCell id="UFn8JdXyG-kBsa06YzI1-7" value="Use" style="endArrow=open;endSize=12;dashed=1;html=1;rounded=0;entryX=1;entryY=0.5;entryDx=0;entryDy=0;exitX=0;exitY=0.5;exitDx=0;exitDy=0;" edge="1" parent="1" source="node16" target="node27">
          <mxGeometry width="160" relative="1" as="geometry">
            <mxPoint x="-610" y="130" as="sourcePoint" />
            <mxPoint x="-450" y="130" as="targetPoint" />
            <Array as="points">
              <mxPoint x="-410" y="125" />
              <mxPoint x="-410" y="203" />
            </Array>
          </mxGeometry>
        </mxCell>
        <mxCell id="UFn8JdXyG-kBsa06YzI1-8" value="Use" style="endArrow=open;endSize=12;dashed=1;html=1;rounded=0;exitX=0.5;exitY=0;exitDx=0;exitDy=0;entryX=0.5;entryY=1;entryDx=0;entryDy=0;" edge="1" parent="1" source="node30" target="node16">
          <mxGeometry width="160" relative="1" as="geometry">
            <mxPoint x="-260" y="340" as="sourcePoint" />
            <mxPoint x="-100" y="340" as="targetPoint" />
          </mxGeometry>
        </mxCell>
        <mxCell id="UFn8JdXyG-kBsa06YzI1-9" value="Use" style="endArrow=open;endSize=12;dashed=1;html=1;rounded=0;entryX=1;entryY=0.5;entryDx=0;entryDy=0;exitX=0;exitY=0.5;exitDx=0;exitDy=0;" edge="1" parent="1" source="node18" target="node16">
          <mxGeometry width="160" relative="1" as="geometry">
            <mxPoint x="-30" y="60" as="sourcePoint" />
            <mxPoint x="130" y="60" as="targetPoint" />
          </mxGeometry>
        </mxCell>
        <mxCell id="UFn8JdXyG-kBsa06YzI1-10" value="Use" style="endArrow=open;endSize=12;dashed=1;html=1;rounded=0;exitX=1;exitY=0.5;exitDx=0;exitDy=0;entryX=0;entryY=0.5;entryDx=0;entryDy=0;" edge="1" parent="1" source="node37" target="node1">
          <mxGeometry width="160" relative="1" as="geometry">
            <mxPoint x="-920" y="803.87" as="sourcePoint" />
            <mxPoint x="-760" y="803.87" as="targetPoint" />
          </mxGeometry>
        </mxCell>
        <mxCell id="UFn8JdXyG-kBsa06YzI1-11" value="Use" style="endArrow=open;endSize=12;dashed=1;html=1;rounded=0;exitX=0.5;exitY=0;exitDx=0;exitDy=0;entryX=0;entryY=0.5;entryDx=0;entryDy=0;" edge="1" parent="1" source="node16" target="node2">
          <mxGeometry width="160" relative="1" as="geometry">
            <mxPoint x="-120" y="-140" as="sourcePoint" />
            <mxPoint x="40" y="-140" as="targetPoint" />
            <Array as="points">
              <mxPoint x="-154" y="-99" />
            </Array>
          </mxGeometry>
        </mxCell>
        <mxCell id="UFn8JdXyG-kBsa06YzI1-12" value="Use" style="endArrow=open;endSize=12;dashed=1;html=1;rounded=0;exitX=0.5;exitY=0;exitDx=0;exitDy=0;entryX=0;entryY=0.5;entryDx=0;entryDy=0;" edge="1" parent="1" source="node16" target="node14">
          <mxGeometry width="160" relative="1" as="geometry">
            <mxPoint x="-120" y="-140" as="sourcePoint" />
            <mxPoint x="40" y="-140" as="targetPoint" />
            <Array as="points">
              <mxPoint x="-154" y="-293" />
            </Array>
          </mxGeometry>
        </mxCell>
      </root>
    </mxGraphModel>
  </diagram>
</mxfile>
